<svg width="18" height="22" viewBox="0 0 18 22" fill="none" xmlns="http://www.w3.org/2000/svg">
<path d="M11.75 1.75049V3.25049C11.75 4.66449 11.75 5.37149 12.19 5.81049C12.628 6.25049 13.335 6.25049 14.75 6.25049H16.25" stroke="#1677FF" stroke-width="1.5" stroke-linecap="round" stroke-linejoin="round"/>
<path d="M4.75 9.75049H12.75M4.75 12.7505H12.75M4.75 15.7505H8.92M0.75 14.7505V6.75049C0.75 3.92249 0.75 2.50749 1.629 1.62949C2.507 0.750488 3.922 0.750488 6.75 0.750488H10.922C11.33 0.750488 11.535 0.750488 11.719 0.826488C11.902 0.902488 12.047 1.04649 12.336 1.33649L16.164 5.16449C16.454 5.45449 16.598 5.59849 16.674 5.78249C16.75 5.96549 16.75 6.17049 16.75 6.57849V14.7505C16.75 17.5785 16.75 18.9935 15.871 19.8715C14.993 20.7505 13.578 20.7505 10.75 20.7505H6.75C3.922 20.7505 2.507 20.7505 1.629 19.8715C0.75 18.9935 0.75 17.5785 0.75 14.7505Z" stroke="#1677FF" stroke-width="1.5" stroke-linecap="round" stroke-linejoin="round"/>
</svg>
